<svg width="28" height="28" viewBox="0 0 28 28" fill="none" xmlns="http://www.w3.org/2000/svg">
<g clip-path="url(#clip0_201_3675)">
<path d="M25.6663 6.04337L12.3547 19.3667L7.40801 14.42L9.05301 12.775L12.3547 16.0767L24.0213 4.41004L25.6663 6.04337ZM13.9997 23.3334C8.85467 23.3334 4.66634 19.145 4.66634 14C4.66634 8.85504 8.85467 4.66671 13.9997 4.66671C15.8313 4.66671 17.5463 5.20337 18.993 6.12504L20.6847 4.43337C18.783 3.11504 16.4847 2.33337 13.9997 2.33337C7.55967 2.33337 2.33301 7.56004 2.33301 14C2.33301 20.44 7.55967 25.6667 13.9997 25.6667C16.018 25.6667 17.9197 25.1534 19.5763 24.2434L17.8263 22.4934C16.6597 23.03 15.3647 23.3334 13.9997 23.3334ZM22.1663 17.5H18.6663V19.8334H22.1663V23.3334H24.4997V19.8334H27.9997V17.5H24.4997V14H22.1663V17.5Z" fill="white"/>
</g>
<defs>
<clipPath id="clip0_201_3675">
<rect width="28" height="28" fill="white"/>
</clipPath>
</defs>
</svg>
